#!OML:ASF H:\BabyWalks\Project 1\Capture day 1\Session 1\baby.ASF
:FULLY-SPECIFIED
:DEGREES
579
root -31.374 17.7027 -3.57786 -176.757 82.5149 -169.085
lowerback 6.36748 0.572845 -0.879277
upperback 3.74196 0.993497 6.28585
thorax 0.17851 0.532037 6.99338
lowerneck -20.7593 -2.10005 0.974636
upperneck 8.92342 -2.66214 -2.66644
head 5.99538 -1.47042 -1.30302
rclavicle -2.08724e-015 -4.77083e-015
rhumerus 84.8251 70.4437 -23.2279
rradius 57.0302
rwrist -7.70756
rhand -22.3756 -17.9586
rfingers 7.12502
rthumb 4.04606 -47.8999
lclavicle -2.08724e-015 -4.77083e-015
lhumerus 94.0847 -44.9105 32.8365
lradius 46.0865
lwrist 1.64929
lhand -6.92742 1.43829
lfingers 7.12502
lthumb 18.9406 30.5361
rfemur 9.18378 9.03088 19.9501
rtibia 13.8122
rfoot -11.8056 -23.9736
rtoes -12.2572
lfemur -1.10468 -10.5976 -14.7188
ltibia 22.6547
lfoot -19.9856 -2.21716
ltoes 14.2199
580
root -31.3732 17.6955 -3.56458 -177.275 82.3002 -169.229
lowerback 6.46343 0.545639 -0.685503
upperback 3.80607 0.967549 6.19358
thorax 0.198362 0.521763 6.78354
lowerneck -20.7209 -2.16282 0.885809
upperneck 9.20801 -2.73229 -2.59539
head 6.08187 -1.50347 -1.27673
rclavicle 2.53947e-014 -6.36111e-015
rhumerus 82.2087 70.4218 -25.3303
rradius 56.5479
rwrist -7.69337
rhand -21.8997 -18.2372
rfingers 7.12502
rthumb 4.50566 -48.1693
lclavicle 2.53947e-014 -6.36111e-015
lhumerus 91.182 -45.0305 34.3913
lradius 45.5047
lwrist 1.43171
lhand -7.11915 1.63903
lfingers 7.12502
lthumb 18.7562 30.7548
rfemur 9.66098 8.70818 20.0128
rtibia 13.7226
rfoot -11.9141 -23.8486
rtoes -11.8974
lfemur -0.740795 -10.5789 -14.7018
ltibia 22.6357
lfoot -20.007 -2.53096
ltoes 14.4979
581
root -31.3736 17.688 -3.55037 -177.705 82.0718 -169.279
lowerback 6.58899 0.502678 -0.474866
upperback 3.87495 0.922553 6.08929
thorax 0.209079 0.502614 6.55267
lowerneck -20.7052 -2.2132 0.80068
upperneck 9.51295 -2.78817 -2.51516
head 6.17913 -1.52867 -1.24717
rclavicle 5.1684e-015 5.40694e-014
rhumerus 79.3663 70.3915 -27.5724
rradius 55.9797
rwrist -7.61614
rhand -21.4316 -18.7247
rfingers 7.12502
rthumb 4.9576 -48.6467
lclavicle 5.1684e-015 5.40694e-014
lhumerus 88.1375 -45.0786 35.9859
lradius 44.8808
lwrist 1.20664
lhand -7.40163 1.82938
lfingers 7.12502
lthumb 18.4845 30.9711
rfemur 10.1302 8.39069 20.0916
rtibia 13.6509
rfoot -12.0585 -23.7393
rtoes -11.4439
lfemur -0.389066 -10.5515 -14.6657
ltibia 22.62
lfoot -20.0151 -2.8522
ltoes 14.6943
582
root -31.3748 17.6799 -3.53528 -178.114 81.828 -169.312
lowerback 6.73347 0.446129 -0.266573
upperback 3.94635 0.860155 5.97503
thorax 0.213542 0.475014 6.31422
lowerneck -20.7006 -2.25564 0.720377
upperneck 9.83021 -2.83647 -2.42405
head 6.28263 -1.54896 -1.2144
rclavicle -6.26172e-015 -7.95139e-015
rhumerus 76.3023 70.3422 -29.9427
rradius 55.3394
rwrist -7.46051
rhand -20.9663 -19.2886
rfingers 7.12502
rthumb 5.40689 -49.1996
lclavicle -6.26172e-015 -7.95139e-015
lhumerus 84.9706 -45.0458 37.6088
lradius 44.222
lwrist 0.962401
lhand -7.74245 1.99237
lfingers 7.12502
lthumb 18.1566 31.1649
rfemur 10.5835 8.08313 20.1772
rtibia 13.6026
rfoot -12.2296 -23.6541
rtoes -10.9277
lfemur -0.057435 -10.5045 -14.6208
ltibia 22.6063
lfoot -20.0079 -3.19351
ltoes 14.7957
583
root -31.3766 17.6716 -3.5194 -178.534 81.5724 -169.362
lowerback 6.88695 0.381117 -0.0767018
upperback 4.0192 0.786146 5.85633
thorax 0.215017 0.441528 6.08309
lowerneck -20.6996 -2.29199 0.657111
upperneck 10.153 -2.88144 -2.33333
head 6.38857 -1.56681 -1.18424
rclavicle 6.95746e-016 2.06736e-014
rhumerus 73.0428 70.2616 -32.4041
rradius 54.6377
rwrist -7.23812
rhand -20.5444 -19.8435
rfingers 7.12502
rthumb 5.81424 -49.7437
lclavicle 6.95746e-016 2.06736e-014
lhumerus 81.6884 -44.9273 39.2733
lradius 43.5391
lwrist 0.675963
lhand -8.08472 2.11899
lfingers 7.12502
lthumb 17.8273 31.3219
rfemur 11.0159 7.79295 20.2646
rtibia 13.5756
rfoot -12.4129 -23.5976
rtoes -10.3884
lfemur 0.251653 -10.4585 -14.5741
ltibia 22.5972
lfoot -19.9863 -3.52801
ltoes 14.8197
584
root -31.3789 17.6637 -3.50286 -178.959 81.3092 -169.43
lowerback 7.04252 0.312091 0.0873065
upperback 4.09243 0.705867 5.73757
thorax 0.215486 0.404661 5.86788
lowerneck -20.6958 -2.32512 0.611901
upperneck 10.48 -2.92715 -2.24403
head 6.49543 -1.58415 -1.15752
rclavicle -1.52567e-014 -5.24792e-014
rhumerus 69.4715 70.1393 -35.0832
rradius 53.8688
rwrist -6.9074
rhand -20.1545 -20.2813
rfingers 7.12502
rthumb 6.19063 -50.1708
lclavicle -1.52567e-014 -5.24792e-014
lhumerus 78.3006 -44.7153 40.9754
lradius 42.8459
lwrist 0.332524
lhand -8.41898 2.15873
lfingers 7.12502
lthumb 17.5057 31.3905
rfemur 11.4267 7.52128 20.3525
rtibia 13.5631
rfoot -12.5931 -23.5683
rtoes -9.86317
lfemur 0.539733 -10.4348 -14.528
ltibia 22.5958
lfoot -19.9602 -3.86164
ltoes 14.8707
